<svg width="24" height="24" viewBox="0 0 24 24" fill="none" xmlns="http://www.w3.org/2000/svg">
<path d="M16.5833 2H7.41666L7.41666 2C4.42702 2.00459 2.00459 4.42702 2 7.41666V16.5833L2 16.5834C2.00462 19.573 4.42707 21.9954 7.41671 22H16.5834C19.573 21.9954 21.9954 19.5729 22 16.5833V7.41667V7.41662C21.9954 4.42697 19.5729 2.00456 16.5833 2L16.5833 2ZM12 16.5833C9.46869 16.5833 7.41666 14.5313 7.41666 12C7.41666 9.46869 9.46869 7.41666 12 7.41666C14.5313 7.41666 16.5833 9.46869 16.5833 12C16.5833 14.5313 14.5313 16.5833 12 16.5833ZM17.4167 7.41666C16.7263 7.41666 16.1667 6.85702 16.1667 6.16667C16.1667 5.47631 16.7263 4.91667 17.4167 4.91667C18.107 4.91667 18.6667 5.47631 18.6667 6.16667C18.6667 6.85702 18.107 7.41666 17.4167 7.41666Z" fill="#71717C"/>
</svg>
