<svg width="24" height="24" viewBox="0 0 24 24" fill="none" xmlns="http://www.w3.org/2000/svg">
<path d="M7.60317 9.08325H3.89674C3.76965 9.08325 3.66663 9.18628 3.66663 9.31337V20.5198C3.66663 20.6469 3.76965 20.7499 3.89674 20.7499H7.60317C7.73026 20.7499 7.83329 20.6469 7.83329 20.5198V9.31337C7.83329 9.18628 7.73026 9.08325 7.60317 9.08325Z" fill="#71717C"/>
<path d="M5.73329 7.41667C6.87468 7.41667 7.79996 6.48393 7.79996 5.33333C7.79996 4.18274 6.87468 3.25 5.73329 3.25C4.5919 3.25 3.66663 4.18274 3.66663 5.33333C3.66663 6.48393 4.5919 7.41667 5.73329 7.41667Z" fill="#71717C"/>
<path d="M17.4167 20.75H19.9167C20.1468 20.75 20.3333 20.5634 20.3333 20.3333V13.3333C20.3333 10.1917 18.5583 8.66665 16.075 8.66665C15.0845 8.63043 14.1248 9.01488 13.4333 9.72499C13.3098 9.86766 13.0941 9.88321 12.9514 9.75972C12.876 9.6945 12.8329 9.59964 12.8333 9.49999C12.8333 9.26987 12.6468 9.08332 12.4167 9.08332H9.91667C9.68655 9.08332 9.5 9.26987 9.5 9.49999V20.3333C9.5 20.5634 9.68655 20.75 9.91667 20.75H12.4167C12.6468 20.75 12.8333 20.5634 12.8333 20.3333V14.0833C12.8333 12.9327 13.7661 12 14.9167 12C16.0673 12 17 12.9327 17 14.0833V20.3333C17 20.5634 17.1865 20.75 17.4167 20.75L17.4167 20.75Z" fill="#71717C"/>
</svg>
