<svg width="24" height="24" viewBox="0 0 24 24" fill="none" xmlns="http://www.w3.org/2000/svg">
<path d="M21.4333 7.36663C21.6102 7.21954 21.6345 6.95683 21.4874 6.77987C21.4304 6.71138 21.3531 6.66294 21.2666 6.64163L20.6083 6.47497C20.385 6.41908 20.2494 6.19281 20.3053 5.96958C20.312 5.94273 20.3214 5.91662 20.3333 5.89163L20.6999 5.14997C20.7999 4.94267 20.7128 4.69363 20.5055 4.59372C20.4156 4.55037 20.313 4.54076 20.2166 4.56663L18.5499 5.0333C18.424 5.07002 18.2882 5.04532 18.1833 4.96663V4.96663C17.462 4.42571 16.5848 4.1333 15.6833 4.1333C13.3821 4.1333 11.5166 5.99878 11.5166 8.29997V8.59997V8.59997C11.5174 8.70593 11.4385 8.79559 11.3333 8.8083C8.99161 9.0833 6.74995 7.89163 4.33328 5.1083C4.22625 4.99026 4.06218 4.942 3.90828 4.9833C3.76976 5.04697 3.67708 5.18121 3.66662 5.3333L3.66662 5.3333C3.33283 6.70442 3.46778 8.14782 4.04995 9.4333C4.10183 9.536 4.06064 9.66131 3.95794 9.71319C3.91947 9.73263 3.87592 9.73966 3.83328 9.7333L2.89995 9.54997C2.67275 9.51344 2.45896 9.66801 2.42243 9.89521C2.41462 9.94378 2.41547 9.99336 2.42495 10.0416L2.42495 10.0416C2.57069 11.3371 3.29736 12.4961 4.39995 13.1916C4.5035 13.2418 4.54679 13.3664 4.49664 13.4699C4.47621 13.5121 4.44214 13.5462 4.39995 13.5666L3.95828 13.7416C3.74469 13.8273 3.64096 14.0698 3.72659 14.2834C3.73111 14.2947 3.73613 14.3058 3.74162 14.3166C4.2374 15.4015 5.23406 16.1739 6.40828 16.3833C6.51644 16.4225 6.57229 16.542 6.53304 16.6502C6.51198 16.7082 6.46629 16.7539 6.40828 16.775H6.40828C5.27525 17.2436 4.05934 17.4788 2.83328 17.4666C2.60317 17.4206 2.37931 17.5698 2.33328 17.8C2.28726 18.0301 2.4365 18.2539 2.66662 18.3H2.66662C4.78957 19.3068 7.10093 19.8549 9.44995 19.9083C11.5162 19.9398 13.5456 19.36 15.2833 18.2416V18.2416C18.1864 16.3037 19.926 13.0405 19.9166 9.54996V8.82496V8.82497C19.9176 8.7025 19.9725 8.58668 20.0666 8.5083L21.4333 7.36663Z" fill="#71717C"/>
</svg>
