<svg width="24" height="24" viewBox="0 0 24 24" fill="none" xmlns="http://www.w3.org/2000/svg">
<path d="M6.91666 6.26675V9.81675C6.91666 10.1619 7.19648 10.4418 7.54166 10.4418C7.88684 10.4418 8.16666 10.1619 8.16666 9.81675V6.26675L10.5417 3.10009V3.10009C10.7488 2.81244 10.6835 2.41136 10.3958 2.20425C10.1082 1.99715 9.7071 2.06244 9.49999 2.35009L7.49999 5.01675L5.54166 2.35009C5.33456 2.07395 4.94281 2.01798 4.66666 2.22509C4.39052 2.43219 4.33456 2.82395 4.54166 3.10009L6.91666 6.26675Z" fill="#71717C"/>
<path d="M9.875 6.06665V8.56665C9.875 9.60218 10.7145 10.4416 11.75 10.4416C12.7855 10.4416 13.625 9.60218 13.625 8.56665V6.06665C13.625 5.03112 12.7855 4.19165 11.75 4.19165C10.7145 4.19165 9.875 5.03112 9.875 6.06665ZM11.125 6.06665C11.125 5.72147 11.4048 5.44165 11.75 5.44165C12.0952 5.44165 12.375 5.72147 12.375 6.06665V8.56665C12.375 8.91183 12.0952 9.19165 11.75 9.19165C11.4048 9.19165 11.125 8.91183 11.125 8.56665V6.06665Z" fill="#71717C"/>
<path d="M15.175 9.76668H15.175C15.6036 10.1954 16.1855 10.4354 16.7917 10.4333C17.1907 10.4294 17.5817 10.3202 17.925 10.1167C18.0329 10.3105 18.2366 10.4314 18.4583 10.4333C18.8035 10.4333 19.0833 10.1535 19.0833 9.80835V8.14168V4.80835C19.0833 4.46317 18.8035 4.18335 18.4583 4.18335C18.1132 4.18335 17.8333 4.46317 17.8333 4.80835V8.14168C17.8333 8.71698 17.367 9.18335 16.7917 9.18335C16.2164 9.18335 15.75 8.71698 15.75 8.14168V4.80835C15.75 4.46317 15.4702 4.18335 15.125 4.18335C14.7798 4.18335 14.5 4.46317 14.5 4.80835V8.14168V8.14168C14.4979 8.75196 14.7412 9.33747 15.175 9.76668L15.175 9.76668Z" fill="#71717C"/>
<path d="M17.4166 16.475C17.4166 16.2449 17.23 16.0583 16.9999 16.0583C16.7698 16.0583 16.5833 16.2449 16.5833 16.475V16.8917H17.4166V16.475Z" fill="#71717C"/>
<path d="M13.6667 16.0583C13.4365 16.0583 13.25 16.2449 13.25 16.475V18.1417C13.25 18.3718 13.4365 18.5583 13.6667 18.5583C13.8968 18.5583 14.0833 18.3718 14.0833 18.1417V16.475C14.0833 16.2449 13.8968 16.0583 13.6667 16.0583Z" fill="#71717C"/>
<path d="M17.8333 11.8918H6.16662C4.09556 11.8918 2.41663 13.5708 2.41663 15.6418V18.1418C2.41663 20.2129 4.09556 21.8918 6.16662 21.8918H17.8333C19.9044 21.8918 21.5833 20.2129 21.5833 18.1418V15.6418C21.5833 13.5708 19.9044 11.8918 17.8333 11.8918C17.8333 11.8918 17.8333 11.8918 17.8333 11.8918ZM8.66662 15.2252H7.41662V18.9585C7.41662 19.1886 7.23008 19.3752 6.99996 19.3752C6.76984 19.3752 6.58329 19.1886 6.58329 18.9585V15.2252H5.33329C5.10317 15.2252 4.91663 15.0386 4.91663 14.8085C4.91663 14.5784 5.10317 14.3918 5.33329 14.3918H8.66662C8.89674 14.3918 9.08329 14.5784 9.08329 14.8085C9.08329 15.0386 8.89674 15.2252 8.66662 15.2252ZM11.5666 18.1418V18.9752V18.9752C11.568 19.2053 11.3826 19.393 11.1525 19.3944C11.0384 19.395 10.9291 19.349 10.85 19.2668C10.6838 19.348 10.5015 19.3907 10.3166 19.3918C9.62627 19.3918 9.06662 18.8322 9.06662 18.1418V15.6418C9.06662 15.4117 9.25317 15.2252 9.48329 15.2252C9.71341 15.2252 9.89995 15.4117 9.89995 15.6418V18.1418C9.89995 18.372 10.0865 18.5585 10.3166 18.5585C10.5467 18.5585 10.7333 18.372 10.7333 18.1418V15.6418C10.7333 15.4117 10.9198 15.2252 11.15 15.2252C11.3801 15.2252 11.5666 15.4117 11.5666 15.6418L11.5666 18.1418ZM14.9 18.1418C14.9 18.8322 14.3403 19.3918 13.65 19.3918C13.4588 19.3906 13.2705 19.345 13.1 19.2585C12.9312 19.415 12.6676 19.4051 12.5111 19.2364C12.4409 19.1607 12.4013 19.0617 12.4 18.9585V13.9585C12.4 13.7284 12.5865 13.5418 12.8166 13.5418C13.0467 13.5418 13.2333 13.7284 13.2333 13.9585V15.3335C13.3668 15.2847 13.5078 15.2593 13.65 15.2585H13.65C14.3403 15.2585 14.9 15.8182 14.9 16.5085V18.1418ZM17.0583 19.3918C16.3352 19.3496 15.7621 18.7656 15.7333 18.0418V16.4752C15.7333 15.7848 16.2929 15.2252 16.9833 15.2252C17.6736 15.2252 18.2333 15.7848 18.2333 16.4752V17.3085C18.2333 17.5386 18.0467 17.7252 17.8166 17.7252H16.5833V18.0418C16.6105 18.3059 16.8126 18.5182 17.075 18.5585C17.2666 18.5585 17.5666 18.4752 17.5666 18.2502C17.5666 18.0201 17.7532 17.8335 17.9833 17.8335C18.2134 17.8335 18.4 18.0201 18.4 18.2502C18.3613 18.921 17.7861 19.4335 17.1153 19.3948C17.1018 19.3941 17.0884 19.3931 17.075 19.3918H17.0583Z" fill="#71717C"/>
</svg>
