<svg width="24" height="24" viewBox="0 0 24 24" fill="none" xmlns="http://www.w3.org/2000/svg">
<path d="M9.75971 5.75H6.11863C5.8009 5.75 5.54333 6.00757 5.54333 6.32529V11.2164C5.54333 11.5341 5.8009 11.7917 6.11863 11.7917H9.75971C10.0774 11.7917 10.335 11.5341 10.335 11.2164V6.32529C10.335 6.00757 10.0774 5.75 9.75971 5.75Z" fill="#71717C"/>
<path d="M22 10.3334C22 8.9527 20.8807 7.83341 19.5 7.83341H17.8333V4.08341C17.8333 3.16294 17.0871 2.41675 16.1667 2.41675H3.66667C2.74619 2.41675 2 3.16294 2 4.08341V18.6667H2C2 20.2776 3.30583 21.5834 4.91667 21.5834H19.0833C20.6942 21.5834 22 20.2776 22 18.6667V10.3334ZM4.91667 19.9167C4.22631 19.9167 3.66667 19.3571 3.66667 18.6667V4.50008C3.66667 4.26996 3.85321 4.08341 4.08333 4.08341H15.75C15.9801 4.08341 16.1667 4.26996 16.1667 4.50008V4.50008V18.6667V18.6667C16.1664 18.9124 16.1972 19.1571 16.2583 19.3951C16.3159 19.6179 16.1819 19.8451 15.9591 19.9027C15.9251 19.9114 15.8901 19.9159 15.855 19.9159L4.91667 19.9167ZM20.3333 18.6667C20.3333 19.3571 19.7737 19.9167 19.0833 19.9167C18.393 19.9167 17.8333 19.3571 17.8333 18.6667V9.91674C17.8333 9.68663 18.0199 9.50008 18.25 9.50008H19.5C19.9602 9.50008 20.3333 9.87317 20.3333 10.3334V18.6667Z" fill="#71717C"/>
<path d="M12.6258 7.03931H14.2925C14.6377 7.03931 14.9175 7.31913 14.9175 7.66431V8.08097C14.9175 8.42615 14.6377 8.70597 14.2925 8.70597H12.6258C12.2811 8.70689 12.0009 8.42819 12 8.08348C12 8.08348 12 8.08347 12 8.08347V7.66681V7.6668C11.9991 7.32116 12.2785 7.04023 12.6242 7.03931C12.6247 7.03931 12.6253 7.03931 12.6258 7.03931H12.6258Z" fill="#71717C"/>
<path d="M12.6258 10.3726H14.2925C14.6377 10.3726 14.9175 10.6524 14.9175 10.9976V11.4142C14.9175 11.7594 14.6377 12.0392 14.2925 12.0392H12.6258C12.2813 12.0397 12.0014 11.7613 12 11.4167V11.0001V11.0001C11.9991 10.6544 12.2785 10.3735 12.6242 10.3726C12.6247 10.3726 12.6253 10.3726 12.6258 10.3726H12.6258Z" fill="#71717C"/>
<path d="M5.95921 13.7058H14.2925C14.6377 13.7058 14.9175 13.9856 14.9175 14.3308V14.7475C14.9175 15.0927 14.6377 15.3725 14.2925 15.3725H5.95921C5.61468 15.3729 5.33475 15.0945 5.33338 14.75V14.3333V14.3333C5.33246 13.9877 5.61191 13.7067 5.95755 13.7058C5.9581 13.7058 5.95866 13.7058 5.95922 13.7058H5.95921Z" fill="#71717C"/>
<path d="M5.95838 17.0393H12.2084C12.5536 17.0393 12.8334 17.3191 12.8334 17.6643V18.081C12.8334 18.4262 12.5536 18.706 12.2084 18.706H5.95838C5.61399 18.7064 5.3343 18.4279 5.33338 18.0835V17.6668V17.6668C5.332 17.3216 5.6107 17.0407 5.95588 17.0393C5.95671 17.0393 5.95755 17.0393 5.95838 17.0393L5.95838 17.0393Z" fill="#71717C"/>
</svg>
