<svg width="24" height="24" viewBox="0 0 24 24" fill="none" xmlns="http://www.w3.org/2000/svg">
<path d="M4.5 20.75H19.5C20.8807 20.75 22 19.6307 22 18.25V9.08333C22 7.70262 20.8807 6.58333 19.5 6.58333H16.25C16.1449 6.5833 16.0564 6.50507 16.0433 6.40083L15.9233 5.44C15.7671 4.18978 14.7049 3.25119 13.445 3.25H10.555C9.29411 3.24994 8.23051 4.18884 8.07416 5.44L7.95416 6.40083V6.40083C7.94126 6.50413 7.85409 6.58205 7.75 6.58333H4.5C3.11929 6.58333 2 7.70262 2 9.08333V18.25H2C2 19.6307 3.11929 20.75 4.5 20.75H4.5ZM9.7275 5.64667V5.64667C9.77964 5.2294 10.1345 4.91636 10.555 4.91667H13.445C13.8655 4.91636 14.2204 5.2294 14.2725 5.64667L14.36 6.35C14.3738 6.46423 14.2924 6.56802 14.1782 6.58183C14.1699 6.58282 14.1616 6.58333 14.1533 6.58333H9.84666C9.73161 6.58324 9.6384 6.4899 9.63849 6.37484C9.6385 6.36654 9.639 6.35824 9.64 6.35L9.7275 5.64667ZM6.375 11.1667C6.375 10.8215 6.65482 10.5417 7 10.5417H17C17.3452 10.5417 17.625 10.8215 17.625 11.1667V11.5833C17.625 11.9285 17.3452 12.2083 17 12.2083H7C6.65482 12.2083 6.375 11.9285 6.375 11.5833V11.1667ZM6.375 15.75C6.375 15.4048 6.65482 15.125 7 15.125H17C17.3452 15.125 17.625 15.4048 17.625 15.75V16.1667C17.625 16.5118 17.3452 16.7917 17 16.7917H7C6.65482 16.7917 6.375 16.5118 6.375 16.1667V15.75Z" fill="#71717C"/>
</svg>
