<svg width="24" height="24" viewBox="0 0 24 24" fill="none" xmlns="http://www.w3.org/2000/svg">
<path d="M3.69168 8.22747C3.78472 8.36729 3.78472 8.54931 3.69168 8.68914L2.76501 10.0833C2.51188 10.4677 2.61827 10.9845 3.00264 11.2376C3.13796 11.3267 3.29632 11.3745 3.45834 11.375H5.13501C5.27867 11.375 5.4122 11.449 5.48834 11.5708L6.97334 13.9475C7.21579 14.3387 7.72946 14.4593 8.12066 14.2168C8.23003 14.149 8.32222 14.0568 8.39 13.9475L9.875 11.5716C9.95115 11.4498 10.0847 11.3758 10.2283 11.3758H11.9042C12.3644 11.3728 12.7351 10.9973 12.7321 10.5371C12.731 10.3757 12.6831 10.218 12.5942 10.0833L11.6667 8.68914C11.5736 8.54932 11.5736 8.3673 11.6667 8.22747L12.5933 6.83747C12.8488 6.45463 12.7455 5.9372 12.3626 5.68177C12.2257 5.59038 12.0647 5.54162 11.9 5.54164H10.225C10.0813 5.54164 9.94781 5.46763 9.87167 5.34581L8.38667 2.96998C8.1157 2.57877 7.57889 2.48131 7.18769 2.75229C7.10265 2.81119 7.02891 2.88493 6.97 2.96998L5.48834 5.34581C5.41219 5.46763 5.27866 5.54164 5.135 5.54164H3.45834H3.45834C2.9981 5.54157 2.62494 5.91461 2.62488 6.37485C2.62485 6.53951 2.67361 6.7005 2.765 6.83747L3.69168 8.22747Z" fill="#71717C"/>
<path d="M21.375 4.91667C21.375 3.30583 20.0692 2 18.4583 2H11.375C10.9148 2 10.5417 2.3731 10.5417 2.83333C10.5417 3.29357 10.9148 3.66667 11.375 3.66667H15.5142C15.6297 3.66693 15.7231 3.76079 15.7229 3.87631C15.7228 3.89911 15.719 3.92175 15.7117 3.94333V3.94333C15.6037 4.25659 15.5474 4.58533 15.545 4.91667V19.0833C15.545 19.7737 14.9854 20.3333 14.295 20.3333C13.6046 20.3333 13.045 19.7737 13.045 19.0833C13.045 18.393 13.6046 17.8333 14.295 17.8333C14.7552 17.8333 15.1283 17.4602 15.1283 17C15.1283 16.5398 14.7552 16.1667 14.295 16.1667H6.58334C6.46828 16.1667 6.375 16.0734 6.375 15.9583V15.5417C6.375 15.0814 6.00191 14.7083 5.54167 14.7083C5.08143 14.7083 4.70834 15.0814 4.70834 15.5417V16.1517V16.1517C4.70803 16.2397 4.6528 16.3183 4.57001 16.3483H4.57001C3.05443 16.8789 2.25595 18.5377 2.78654 20.0532C3.19609 21.2231 4.30222 22.0047 5.54167 22H14.2917H14.2917C15.9025 22 17.2083 20.6942 17.2083 19.0833V7.85416V7.85417C17.2082 7.73911 17.3014 7.64574 17.4165 7.64562C17.441 7.64559 17.4653 7.64989 17.4883 7.65833C17.7989 7.77324 18.1272 7.83248 18.4583 7.83333C20.0692 7.83333 21.375 6.5275 21.375 4.91666L21.375 4.91667ZM11.5417 20.0558C11.5803 20.1637 11.5242 20.2825 11.4163 20.3212C11.3935 20.3294 11.3693 20.3335 11.345 20.3333H5.54167C4.85131 20.3333 4.29167 19.7737 4.29167 19.0833C4.29167 18.393 4.85131 17.8333 5.54167 17.8333H11.345C11.4605 17.8339 11.5537 17.928 11.5531 18.0435C11.553 18.0664 11.5492 18.0892 11.5417 18.1108C11.3191 18.7401 11.3191 19.4266 11.5417 20.0558L11.5417 20.0558ZM18.4583 6.16667C17.768 6.16667 17.2083 5.60702 17.2083 4.91667C17.2083 4.22631 17.768 3.66667 18.4583 3.66667C19.1487 3.66667 19.7083 4.22631 19.7083 4.91667C19.7083 5.60702 19.1487 6.16667 18.4583 6.16667Z" fill="#71717C"/>
</svg>
