<svg width="24" height="24" viewBox="0 0 24 24" fill="none" xmlns="http://www.w3.org/2000/svg">
<path d="M12 2.00002H12C6.47715 2.00002 2 6.47717 2 12C2 17.5229 6.47715 22 12 22C17.5228 22 22 17.5229 22 12V11.9999C21.994 6.47954 17.5203 2.00592 11.9999 2L12 2.00002ZM12 17.8333C11.3096 17.8333 10.75 17.2737 10.75 16.5833C10.75 15.893 11.3096 15.3333 12 15.3333C12.6904 15.3333 13.25 15.893 13.25 16.5833C13.25 17.2737 12.6904 17.8333 12 17.8333ZM13.3333 12.7667C13.0295 12.8993 12.8332 13.1993 12.8333 13.5308C12.8333 13.9911 12.4602 14.3642 12 14.3642C11.5398 14.3642 11.1667 13.9911 11.1667 13.5308V13.5305C11.1667 12.5363 11.7558 11.6366 12.667 11.239C13.5106 10.8706 13.8958 9.88819 13.5274 9.04465C13.159 8.20111 12.1765 7.81591 11.333 8.18429C10.7255 8.44958 10.333 9.04965 10.3333 9.71252C10.3333 10.1728 9.96024 10.5459 9.50001 10.5459C9.03977 10.5459 8.66667 10.1728 8.66667 9.71252V9.71247C8.66667 7.87152 10.1591 6.37914 12 6.37914C13.841 6.37914 15.3333 7.87152 15.3333 9.71247C15.3333 11.0379 14.5481 12.2374 13.3333 12.7675L13.3333 12.7667Z" fill="#71717C"/>
</svg>
