<svg width="19" height="19" viewBox="0 0 19 19" fill="none" xmlns="http://www.w3.org/2000/svg">
<path fill-rule="evenodd" clip-rule="evenodd" d="M13.5 0C14.356 0 15.05 0.693959 15.05 1.55V4.02541H17.5C18.3284 4.02541 19 4.69699 19 5.52541C19 6.35384 18.3284 7.02541 17.5 7.02541H15.05V11.9758H17.5C18.3284 11.9758 19 12.6473 19 13.4758C19 14.3042 18.3284 14.9758 17.5 14.9758H15.05V17.4497C15.05 18.3057 14.356 18.9997 13.5 18.9997C12.644 18.9997 11.95 18.3057 11.95 17.4497V14.9758H7.05V17.4497C7.05 18.3057 6.35604 18.9997 5.5 18.9997C4.64396 18.9997 3.95 18.3057 3.95 17.4497V14.9758H1.5C0.671572 14.9758 0 14.3042 0 13.4758C0 12.6473 0.671572 11.9758 1.5 11.9758H3.95L3.95 7.02541H1.5C0.671572 7.02541 0 6.35384 0 5.52541C0 4.69698 0.671572 4.02541 1.5 4.02541H3.95V1.55C3.95 0.693959 4.64396 0 5.5 0C6.35604 0 7.05 0.693959 7.05 1.55V4.02541H11.95V1.55C11.95 0.693959 12.644 0 13.5 0ZM7.05 7.02541L7.05 11.9758H11.95V7.02541H7.05Z" fill="#71717C"/>
</svg>
