<svg width="24" height="24" viewBox="0 0 24 24" fill="none" xmlns="http://www.w3.org/2000/svg">
<path d="M7.41663 5.54175C7.07164 5.54221 6.79209 5.82176 6.79163 6.16675V6.58341C6.79163 6.69847 6.8849 6.79175 6.99996 6.79175H7.83329C7.94835 6.79175 8.04163 6.69847 8.04163 6.58341V6.16675V6.16674C8.04116 5.82176 7.76161 5.5422 7.41662 5.54175H7.41663Z" fill="#71717C"/>
<path fill-rule="evenodd" clip-rule="evenodd" d="M14.2917 10.9167H20.75C21.4404 10.9167 22 11.4764 22 12.1667V20.5001C22 21.1904 21.4404 21.7501 20.75 21.7501H12C11.3096 21.7501 10.75 21.1904 10.75 20.5001V14.0417C10.75 13.9267 10.8433 13.8334 10.9583 13.8334H13.4583C13.8035 13.8334 14.0833 13.5536 14.0833 13.2084V11.1251C14.0833 11.01 14.1766 10.9167 14.2917 10.9167ZM16.843 19.5627C17.147 19.6534 17.4803 19.7041 17.843 19.7147L18.051 18.9467C17.507 18.9041 17.0856 18.7921 16.787 18.6107C16.4883 18.4241 16.339 18.1654 16.339 17.8347C16.339 17.6107 16.411 17.4347 16.555 17.3067C16.7043 17.1734 16.9016 17.1067 17.147 17.1067C17.3923 17.1067 17.571 17.1627 17.683 17.2747C17.8003 17.3867 17.859 17.5254 17.859 17.6907C17.859 17.7761 17.8403 17.8561 17.803 17.9307C17.7656 18.0001 17.7256 18.0587 17.683 18.1067L18.459 18.4827C18.5336 18.4187 18.6083 18.3121 18.683 18.1627C18.7576 18.0081 18.795 17.8427 18.795 17.6667C18.795 17.2561 18.651 16.9307 18.363 16.6907C18.075 16.4507 17.683 16.3307 17.187 16.3307C16.915 16.3307 16.675 16.3734 16.467 16.4587C16.4296 16.4267 16.395 16.3787 16.363 16.3147C16.3363 16.2454 16.323 16.1734 16.323 16.0987C16.323 15.9761 16.3656 15.8881 16.451 15.8347C16.5363 15.7761 16.643 15.7467 16.771 15.7467H18.355V14.4187H19.171V13.6667H14.963V14.4187H17.379V14.9947H16.395C16.2456 14.9947 16.1043 15.0161 15.971 15.0587C15.843 15.1014 15.731 15.1654 15.635 15.2507C15.539 15.3307 15.4616 15.4321 15.403 15.5547C15.3496 15.6721 15.323 15.8054 15.323 15.9547C15.323 16.0614 15.3363 16.1601 15.363 16.2507C15.395 16.3414 15.4323 16.4241 15.475 16.4987C15.5176 16.5734 15.563 16.6401 15.611 16.6987C15.659 16.7574 15.7043 16.8081 15.747 16.8507C15.651 16.9307 15.5576 17.0534 15.467 17.2187C15.3816 17.3787 15.339 17.5707 15.339 17.7947C15.339 18.0987 15.4003 18.3681 15.523 18.6027C15.651 18.8321 15.827 19.0267 16.051 19.1867C16.275 19.3521 16.539 19.4774 16.843 19.5627Z" fill="#71717C"/>
<path d="M12.625 12.8333C12.7401 12.8333 12.8333 12.7401 12.8333 12.625V3.25C12.8333 2.55964 12.2737 2 11.5833 2H3.25L3.25 2C2.55964 2 2 2.55964 2 3.25V11.5833H2C2 12.2737 2.55964 12.8333 3.25 12.8333H12.625ZM7 8.04166C6.88494 8.04166 6.79167 8.13494 6.79167 8.25V9.91666C6.79167 10.2618 6.51184 10.5417 6.16667 10.5417C5.82149 10.5417 5.54167 10.2618 5.54167 9.91666V6.16667V6.16667C5.54167 5.13113 6.38113 4.29167 7.41666 4.29167C8.4522 4.29167 9.29166 5.13113 9.29166 6.16667V9.91666C9.29166 10.2618 9.01184 10.5417 8.66666 10.5417C8.32149 10.5417 8.04166 10.2618 8.04166 9.91666V8.25C8.04166 8.13494 7.94839 8.04166 7.83333 8.04166L7 8.04166Z" fill="#71717C"/>
</svg>
