<svg width="24" height="24" viewBox="0 0 24 24" fill="none" xmlns="http://www.w3.org/2000/svg">
<path d="M13.4583 8.03646C13.4583 7.23104 12.8054 6.57812 12 6.57812C11.1945 6.57812 10.5416 7.23104 10.5416 8.03646V9.28646C10.5416 9.40152 10.6349 9.49479 10.75 9.49479H13.25C13.365 9.49479 13.4583 9.40152 13.4583 9.28646V8.03646Z" fill="#71717C"/>
<path d="M22 3.62738V3.62739C21.9945 2.73034 21.2662 2.00578 20.3692 2.00488H3.6325L3.6325 2.00488C2.73461 2.00993 2.00953 2.73948 2.01 3.63738L2 9.75488L2 9.75488C2.04503 15.6348 6.14467 20.7045 11.885 21.979C11.9382 21.9897 11.9924 21.995 12.0467 21.9949C12.1027 21.9947 12.1585 21.9888 12.2133 21.9774C17.9421 20.6523 21.9968 15.5466 21.99 9.66654L22 3.62738ZM8.24999 14.9115V10.3282C8.24999 9.86797 8.62309 9.49488 9.08332 9.49488H9.29166V8.03654V8.03654C9.29166 6.54077 10.5042 5.32821 12 5.32821C13.4958 5.32821 14.7083 6.54077 14.7083 8.03654V9.49488H14.9167C15.3769 9.49488 15.75 9.86797 15.75 10.3282V14.9115C15.75 15.3718 15.3769 15.7449 14.9167 15.7449H9.08332C8.62309 15.7449 8.24999 15.3718 8.24999 14.9115V14.9115Z" fill="#71717C"/>
<path d="M12 14.0782C12.5753 14.0782 13.0417 13.6118 13.0417 13.0365C13.0417 12.4612 12.5753 11.9949 12 11.9949C11.4247 11.9949 10.9584 12.4612 10.9584 13.0365C10.9584 13.6118 11.4247 14.0782 12 14.0782Z" fill="#71717C"/>
</svg>
