<svg width="24" height="24" viewBox="0 0 24 24" fill="none" xmlns="http://www.w3.org/2000/svg">
<path d="M3.25 8.88929H3.25C2.55964 8.88929 2 9.44893 2 10.1393C2 10.8296 2.55964 11.3893 3.25 11.3893H3.25C8.35626 11.2335 12.622 15.2467 12.7777 20.353C12.7797 20.4184 12.781 20.4839 12.7816 20.5493C12.7816 21.2397 13.3413 21.7993 14.0316 21.7993C14.722 21.7993 15.2816 21.2397 15.2816 20.5493L15.2816 20.5494C15.2485 14.0744 9.97259 8.85224 3.49757 8.88541C3.41505 8.88583 3.33254 8.88713 3.25005 8.88929L3.25 8.88929Z" fill="#71717C"/>
<path d="M3.27588 2.19751H3.27588C2.58552 2.19751 2.02588 2.75715 2.02588 3.44751C2.02588 4.13786 2.58552 4.69751 3.27588 4.69751C12.3734 4.69751 19.5 11.66 19.5 20.5492C19.5 21.2395 20.0597 21.7992 20.75 21.7992C21.4404 21.7992 22 21.2395 22 20.5492C22 10.2583 13.775 2.19751 3.27588 2.19751L3.27588 2.19751Z" fill="#71717C"/>
<path d="M4.91667 21.7901C6.5275 21.7901 7.83333 20.4843 7.83333 18.8735C7.83333 17.2626 6.5275 15.9568 4.91667 15.9568C3.30584 15.9568 2 17.2626 2 18.8735C2 20.4843 3.30584 21.7901 4.91667 21.7901Z" fill="#71717C"/>
</svg>
