<svg width="24" height="24" viewBox="0 0 24 24" fill="none" xmlns="http://www.w3.org/2000/svg">
<path d="M22 10.63C21.998 10.5185 21.9736 10.4085 21.9283 10.3066L19.3558 4.51829C19.309 4.41318 19.3563 4.29003 19.4614 4.24323C19.464 4.24209 19.4665 4.241 19.4692 4.23996L20.0142 4.02496V4.02496C20.4424 3.85605 20.6526 3.37196 20.4837 2.94371C20.3148 2.51546 19.8307 2.30522 19.4025 2.47413L13.1183 4.95496C13.0113 4.9973 12.8903 4.9449 12.8479 4.83791C12.8383 4.81363 12.8334 4.78775 12.8333 4.76163V3.66663C12.8333 3.20639 12.4602 2.83329 12 2.83329C11.5398 2.83329 11.1667 3.20639 11.1667 3.66663V5.58329V5.58328C11.1666 5.66884 11.1145 5.74575 11.035 5.77746L3.56917 8.72412C3.14068 8.89212 2.92952 9.37565 3.09751 9.80414C3.22287 10.1239 3.53156 10.334 3.875 10.3333H3.90833C4.02332 10.3292 4.11983 10.4192 4.12389 10.5341C4.12501 10.5659 4.11884 10.5976 4.10583 10.6266L2.0725 15.2025H2.0725C2.02693 15.3043 2.00228 15.4142 2 15.5258V15.5416C2 17.6127 3.67893 19.2916 5.75 19.2916C7.82106 19.2916 9.5 17.6127 9.5 15.5416V15.5417C9.49996 15.4677 9.4867 15.3943 9.46085 15.325C9.44951 15.2837 9.43502 15.2433 9.41751 15.2042L6.86833 9.44662C6.84573 9.39337 6.84573 9.33321 6.86833 9.27996C6.89015 9.22767 6.93225 9.18647 6.985 9.16579L10.8842 7.62662C10.991 7.58519 11.1112 7.63821 11.1527 7.74506C11.1623 7.76999 11.1671 7.79655 11.1667 7.82329V19.7083C11.1667 19.8233 11.0734 19.9166 10.9583 19.9166H8.3175C7.85726 19.9166 7.48417 20.2897 7.48417 20.75C7.48417 21.2102 7.85726 21.5833 8.3175 21.5833H15.66C16.1202 21.5833 16.4933 21.2102 16.4933 20.75C16.4933 20.2897 16.1202 19.9166 15.66 19.9166H13.0417C12.9266 19.9166 12.8333 19.8233 12.8333 19.7083V6.99996C12.8335 6.91463 12.8857 6.83802 12.965 6.80662L16.3333 5.47912C16.4397 5.4364 16.5605 5.48797 16.6032 5.59431C16.6242 5.64661 16.6231 5.7052 16.6 5.75662L14.5833 10.3083C14.5658 10.3474 14.5513 10.3878 14.54 10.4291C14.5141 10.4984 14.5009 10.5718 14.5008 10.6458V10.6458C14.5008 12.7169 16.1798 14.3958 18.2508 14.3958C20.3219 14.3958 22.0008 12.7169 22.0008 10.6458L22 10.63ZM4.34416 14.9166C4.22865 14.9158 4.13567 14.8215 4.13649 14.706C4.13669 14.6775 4.1427 14.6494 4.15416 14.6233L5.5575 11.4633C5.60418 11.3581 5.72727 11.3107 5.83244 11.3574C5.87964 11.3784 5.91738 11.4161 5.93833 11.4633L7.33833 14.6233C7.38482 14.729 7.33677 14.8525 7.23102 14.8989C7.20495 14.9104 7.17681 14.9164 7.14833 14.9166H4.34416ZM16.8517 10.0208C16.7361 10.02 16.6432 9.92566 16.644 9.81015C16.6442 9.78167 16.6502 9.75353 16.6617 9.72746L18.0617 6.56746C18.1083 6.4623 18.2314 6.41489 18.3366 6.46157C18.3838 6.48252 18.4215 6.52026 18.4425 6.56746L19.8458 9.72746C19.8923 9.83321 19.8443 9.95663 19.7385 10.0031C19.7124 10.0146 19.6843 10.0206 19.6558 10.0208H16.8517Z" fill="#71717C"/>
</svg>
